<?xml version="1.0" encoding="UTF-8"?>
<svg width="52px" height="28px" viewBox="0 0 52 28" version="1.1" xmlns="http://www.w3.org/2000/svg" xmlns:xlink="http://www.w3.org/1999/xlink">
    <!-- Generator: Sketch 55.2 (78181) - https://sketchapp.com -->
    <title>Logo / Ding / Blue</title>
    <desc>Created with Sketch.</desc>
    <g id="Logo-/-Ding-/-Blue" stroke="none" stroke-width="1" fill="none" fill-rule="evenodd">
        <g id="Ding-logo" transform="translate(2.000000, 1.000000)">
            <g id="Letters" transform="translate(0.000000, 5.000000)">
                <path d="M34.1113,11.4688 C33.0483,11.4688 32.2203,10.7208 32.2203,9.5598 C32.2203,8.2608 33.0483,7.5528 34.1113,7.5528 C35.1743,7.5528 35.9423,8.4578 35.9423,9.5598 C35.9423,10.8588 35.0763,11.4688 34.1113,11.4688 M37.6753,12.8258 C38.7983,12.0198 39.4483,10.8198 39.4483,9.5998 C39.4483,9.5988 39.4473,9.5978 39.4473,9.5978 L39.4483,9.5978 C39.4483,6.5588 37.0973,4.6268 34.1313,4.5828 C34.1243,4.5828 34.0293,4.5818 34.0293,4.5818 C31.0543,4.6168 28.6943,6.5368 28.6943,9.5598 C28.6943,12.5718 30.8413,14.4598 34.1113,14.4598 C35.4433,14.4598 35.8723,15.0628 35.8633,15.7808 C35.8553,16.4868 35.2863,17.0628 34.5813,17.1298 C33.4553,17.2388 32.1323,17.0718 32.1773,15.2888 L28.8003,15.2888 C28.6033,18.2598 30.5863,20.0888 34.0713,20.0888 C36.8483,20.0888 39.5863,18.9078 39.5863,15.7588 C39.5863,15.2288 39.4673,13.8498 37.6753,12.8258" id="Fill-10" fill="#0048AA"></path>
                <path d="M24,14.5781 L24,9.2451 C24,8.0451 23.288,7.6311 22.618,7.6311 C21.751,7.6311 20.979,8.2221 20.979,9.5011 L20.979,14.5781 L17.422,14.5781 L17.422,4.9771 L20.622,4.9771 L20.728,5.9581 C21.554,4.9941 22.775,4.6401 23.8,4.6591 C25.848,4.6791 27.556,5.7621 27.556,9.2251 L27.556,14.5781 L24,14.5781 Z" id="Fill-6" fill="#0048AA"></path>
                <polygon id="Fill-8" fill="#0048AA" points="12.444 14.577 16 14.577 16 4.977 12.444 4.977"></polygon>
                <path d="M16.1777,1.9551 C16.1777,3.0351 15.3027,3.9111 14.2227,3.9111 C13.1427,3.9111 12.2667,3.0351 12.2667,1.9551 C12.2667,0.8751 13.1427,0.0001 14.2227,0.0001 C15.3027,0.0001 16.1777,0.8751 16.1777,1.9551" id="Fill-2" fill="#FF5ED9"></path>
                <path d="M7.4668,1.7773 L11.0228,1.7773 L11.0228,14.5783 L7.8218,14.5783 L7.6448,13.5753 C6.8178,14.5193 5.5338,14.8533 4.4508,14.7953 C1.5958,14.6183 -0.0002,12.8273 -0.0002,9.7563 C-0.0002,6.7853 1.8908,4.6783 4.7268,4.6783 C5.9678,4.6783 6.9348,5.0393 7.4668,5.6883 L7.4668,1.7773 Z M3.6048,9.7563 C3.6048,11.1143 4.4718,11.8813 5.5538,11.8813 C6.7758,11.8813 7.5038,10.8793 7.5038,9.8553 C7.5038,8.6743 6.8338,7.6113 5.5538,7.6113 C4.4718,7.6113 3.6048,8.3983 3.6048,9.7563 L3.6048,9.7563 Z" id="Fill-4" fill="#0048AA"></path>
            </g>
            <g id="Pulse" transform="translate(35.896724, 0.910669)" fill="#FF5ED9">
                <path d="M11.3835758,9.74073063 C11.0885758,9.74073063 10.8125758,9.55773063 10.7065758,9.26473063 C10.0375758,7.40173063 8.96457578,5.76173063 7.51557578,4.38973063 C6.07057578,3.02073063 4.34557578,2.01573063 2.39057578,1.40573063 C2.01157578,1.28773063 1.79957578,0.884730626 1.91857578,0.505730626 C2.03657578,0.125730626 2.44057578,-0.0852693745 2.82057578,0.0327306255 C4.98657578,0.710730626 6.89957578,1.82473063 8.50557578,3.34573063 C10.1185758,4.87473063 11.3155758,6.70273063 12.0605758,8.77873063 C12.1955758,9.15273063 12.0005758,9.56473063 11.6265758,9.69873063 C11.5465758,9.72773063 11.4645758,9.74073063 11.3835758,9.74073063" id="Fill-11"></path>
                <path d="M8.66967578,10.7026306 C8.37467578,10.7026306 8.09867578,10.5196306 7.99267578,10.2266306 C7.47667578,8.79363063 6.64867578,7.53163063 5.53567578,6.47663063 C4.39167578,5.39263063 3.01867578,4.60163063 1.45267578,4.12663063 C1.07167578,4.01063063 0.857675785,3.60863063 0.974675785,3.22863063 C1.08967578,2.84863063 1.49167578,2.63563063 1.87167578,2.75063063 C3.65167578,3.29263063 5.21867578,4.19463063 6.52567578,5.43263063 C7.80367578,6.64363063 8.75267578,8.09263063 9.34667578,9.73963063 C9.48167578,10.1126306 9.28767578,10.5246306 8.91367578,10.6596306 C8.83367578,10.6886306 8.75067578,10.7026306 8.66967578,10.7026306" id="Fill-12"></path>
                <path d="M5.95577578,11.6635306 C5.66177578,11.6635306 5.38677578,11.4815306 5.27977578,11.1895306 C4.51577578,9.08653063 2.77977578,7.50353063 0.518775785,6.84653063 C0.137775785,6.73453063 -0.0822242152,6.33653063 0.0287757848,5.95553063 C0.140775785,5.57353063 0.538775785,5.35453063 0.920775785,5.46553063 C3.62777578,6.25253063 5.70877578,8.16053063 6.63277578,10.6985306 C6.76777578,11.0715306 6.57477578,11.4845306 6.20177578,11.6205306 C6.12077578,11.6495306 6.03777578,11.6635306 5.95577578,11.6635306" id="Fill-13"></path>
            </g>
        </g>
    </g>
</svg>