
	<svg xmlns="http://www.w3.org/2000/svg" xmlns:xlink="http://www.w3.org/1999/xlink" version="1.1" width="128" height="128" viewBox="0 0 100 100">


		<defs>
			<linearGradient id="Gradient_2" gradientUnits="userSpaceOnUse" x1="50" y1="100" x2="50" y2="0" spreadMethod="pad">
<stop offset="0%" stop-color="#F6E64C"/>

<stop offset="100%" stop-color="#F6E64C"/>
</linearGradient><linearGradient id="Gradient_3" gradientUnits="userSpaceOnUse" x1="50" y1="43" x2="50" y2="0" spreadMethod="pad">
<stop offset="0%" stop-color="#FFFFFF" stop-opacity="0.1"/>

<stop offset="100%" stop-color="#FFFFFF" stop-opacity="0.7"/>
</linearGradient><linearGradient id="Gradient_4" gradientUnits="userSpaceOnUse" x1="95" y1="38" x2="7" y2="38" spreadMethod="pad">
<stop offset="0%" stop-color="#FFFFFF" stop-opacity="0.1"/>

<stop offset="100%" stop-color="#FFFFFF" stop-opacity="0.7"/>
</linearGradient><linearGradient id="Gradient_5" gradientUnits="userSpaceOnUse" x1="5" y1="38" x2="94" y2="38" spreadMethod="pad">
<stop offset="0%" stop-color="#FFFFFF" stop-opacity="0.1"/>

<stop offset="100%" stop-color="#FFFFFF" stop-opacity="0.7"/>
</linearGradient><g id="background">
<path fill="url(#background-gradient)" stroke="none" d=" M 93.5 25 Q 92.4 23.15 90.9 22.25 L 53.7 0.85 Q 52.15 0 50 0 47.85 0 46.35 0.85 L 9.15 22.25 Q 7.6 23.15 6.55 25 5.45 26.9 5.45 28.6 L 5.45 71.4 Q 5.45 73.15 6.55 75 7.6 76.85 9.15 77.75 L 46.35 99.1 Q 47.85 100 50 100 52.15 100 53.7 99.1 L 90.9 77.75 Q 92.4 76.85 93.5 75 94.55 73.15 94.55 71.4 L 94.55 28.6 Q 94.55 26.85 93.5 25 M 89.95 27.05 L 89.95 72.95 50 95.95 10.05 72.95 10.05 27.05 50 4.05 89.95 27.05 Z"/>

<path fill="url(#Gradient_2)" stroke="none" d=" M 83.4 69.2 L 83.4 30.8 50 11.6 16.65 30.8 16.65 69.2 50 88.4 83.4 69.2 Z"/>
</g><mask id="mask">
<path fill="#FFFFFF" stroke="none" d=" M 83.4 69.2 L 83.4 30.8 50 11.6 16.65 30.8 16.65 69.2 50 88.4 83.4 69.2 Z"/>
</mask><g id="Layer2_0_FILL">
<path fill="url(#Gradient_3)" stroke="none" d=" M 92.95 24.2 Q 91.95 22.9 90.9 22.25 L 53.7 0.85 Q 52.15 0 50 0 47.85 0 46.35 0.85 L 9.15 22.25 Q 8.1 22.9 7.05 24.2 14.4 32.95 25.45 37.95 36.9 43.05 50 43.05 63.05 43.05 74.55 37.95 85.7 32.95 92.95 24.2 Z"/>
</g><g id="Layer1_0_FILL">
<path fill="url(#Gradient_4)" stroke="none" d=" M 93.5 25 Q 92.4 23.15 90.9 22.25 L 53.7 0.85 Q 52.15 0 50 0 47.85 0 46.35 0.85 L 9.15 22.25 Q 7.65 23.15 6.6 24.9 L 93.4 75.15 Q 94.55 73.2 94.55 71.4 L 94.55 28.6 Q 94.55 26.85 93.5 25 Z"/>
</g><g id="Layer0_0_FILL">
<path fill="url(#Gradient_5)" stroke="none" d=" M 93.55 25.1 Q 92.45 23.15 90.9 22.25 L 53.7 0.85 Q 52.15 0 50 0 47.85 0 46.35 0.85 L 9.15 22.25 Q 7.6 23.15 6.55 25 5.45 26.9 5.45 28.6 L 5.45 71.4 Q 5.45 73.25 6.7 75.15 L 93.55 25.1 Z"/>
</g>
			
	<linearGradient id="background-gradient" x1="0" y1="0" y2="1" x2="0" >
		<stop stop-color="#baa949" offset="0%"/>
		<stop stop-color="#baa949" offset="100%"/>
	</linearGradient>

			
			
			<g transform="scale(0.35463756145117414) translate(-7.5110015869140625 -10.47697639465332)" id="picture"><path d="M66.608 272.897c-14.003 0-25.381-2.99-26.256-6.833 0-1.282 1.75-2.136 3.5-2.563 2.626 0 4.377.854 5.252 1.708 0 1.282 6.126 2.99 17.504 2.99 10.502 0 17.504-2.135 17.504-2.99 0-.427-.875-2.135-16.629-2.99h-1.75c-7.002-.426-24.506-1.28-24.506-7.26 0-4.271 11.378-7.688 26.256-7.688 14.003 0 25.38 2.99 26.256 6.834 0 1.28-1.75 2.135-3.5 2.562-2.626 0-4.377-.854-5.252-1.708 0-1.282-6.126-2.99-17.504-2.99-10.502 0-17.504 2.136-17.504 3.417 0 .427.875 2.135 16.629 2.99h1.75c7.002.427 24.506 1.281 24.506 7.26 0 4.272-11.378 7.261-26.256 7.261zm0 4.272c-2.626 0-4.376-.855-4.376-2.136v-29.898c0-1.281 1.75-2.135 4.376-2.135s4.376.854 4.376 2.135v29.898c0 1.281-1.75 2.136-4.376 2.136zm43.76-64.067h-8.752c-2.626 0-4.376-.854-4.376-2.136s1.75-2.135 4.376-2.135h8.752c2.625 0 4.376.854 4.376 2.135s-1.75 2.136-4.376 2.136zm35.008 0h-8.752c-2.626 0-4.376-.854-4.376-2.136s1.75-2.135 4.376-2.135h8.752c2.625 0 4.376.854 4.376 2.135s-1.75 2.136-4.376 2.136zm35.008 0h-8.752c-2.626 0-4.376-.854-4.376-2.136s1.75-2.135 4.376-2.135h8.752c2.625 0 4.376.854 4.376 2.135s-1.75 2.136-4.376 2.136zm35.008 0h-8.752c-2.626 0-4.376-.854-4.376-2.136s1.75-2.135 4.376-2.135h8.752c2.625 0 4.376.854 4.376 2.135s-1.75 2.136-4.376 2.136zm-61.264 17.084h-43.76c-2.626 0-4.376-.854-4.376-2.135s1.75-2.136 4.376-2.136h43.76c2.625 0 4.376.854 4.376 2.136s-1.75 2.135-4.376 2.135zm0 17.085h-8.752c-2.626 0-4.376-.854-4.376-2.136s1.75-2.135 4.376-2.135h8.752c2.625 0 4.376.854 4.376 2.135s-1.75 2.136-4.376 2.136zm83.144 17.084H136.624c-2.626 0-4.376-.854-4.376-2.135s1.75-2.136 4.376-2.136h100.648c11.377 0 26.256-5.125 26.256-10.678v-38.44c0-5.552-10.503-10.677-21.88-10.677H92.864c-10.503 0-21.88 2.562-21.88 8.542v19.22c0 1.281-1.75 2.135-4.376 2.135s-4.376-.854-4.376-2.135v-19.22c0-7.261 13.128-12.814 30.632-12.814h148.784c16.628 0 30.632 6.834 30.632 14.95v38.44c0 8.114-19.255 14.948-35.008 14.948zm-39.384-17.084c-12.253 0-21.88-4.698-21.88-10.678s9.627-10.678 21.88-10.678c3.5 0 7.876.427 11.377 1.282 1.75.427 1.75 1.28 1.75 1.708s-.875 1.281-1.75 1.708c-4.376 1.709-7.001 3.844-7.001 5.98s2.625 4.271 7.001 5.552c1.75.428 1.75 1.282 1.75 1.709s-.875 1.281-1.75 1.708c-3.5 1.282-7.877 1.709-11.377 1.709zm0-17.085c-7.002 0-13.128 2.99-13.128 6.407S190.886 243 197.888 243c-2.626-1.709-4.376-4.271-4.376-6.407s1.75-4.698 4.376-6.407zm17.504 17.085c-12.253 0-21.88-4.698-21.88-10.678s9.627-10.678 21.88-10.678 21.88 4.698 21.88 10.678-9.628 10.678-21.88 10.678zm0-17.085c-7.002 0-13.128 2.99-13.128 6.407S208.39 243 215.392 243s13.128-2.99 13.128-6.407-6.127-6.407-13.128-6.407zM66.608 289.982c-31.507 0-56.888-12.386-56.888-27.762s25.38-27.763 56.888-27.763 56.888 12.387 56.888 27.763-25.381 27.762-56.888 27.762zm0-51.253c-26.256 0-48.136 10.677-48.136 23.49s21.88 23.492 48.136 23.492 48.136-10.678 48.136-23.491-21.88-23.491-48.136-23.491zm113.084-68.973H27.475c-5.49 0-9.982-2.904-9.982-6.453V84.254H262.04v37.105c0 1.936 1.997 3.226 4.991 3.226s4.991-1.29 4.991-3.226V48.763c0-7.098-8.983-12.905-19.963-12.905h-29.944c-2.995 0-4.991 1.29-4.991 3.226s1.996 3.226 4.99 3.226h29.945c5.49 0 9.981 2.904 9.981 6.453v29.039H17.493V48.763c0-3.549 4.492-6.453 9.982-6.453h24.953c2.995 0 4.991-1.29 4.991-3.226s-1.996-3.226-4.99-3.226H27.474c-10.98 0-19.963 5.807-19.963 12.905v114.54c0 7.098 8.983 12.906 19.963 12.906h152.217c2.995 0 4.991-1.291 4.991-3.227s-1.996-3.226-4.99-3.226zM114.812 42.31h44.917c2.995 0 4.991-1.29 4.991-3.226s-1.996-3.226-4.99-3.226h-44.917c-2.995 0-4.991 1.29-4.991 3.226s1.996 3.226 4.99 3.226zM83.87 63.282c10.48 0 18.965-5.485 18.965-12.26V25.21c0-6.775-8.484-12.26-18.965-12.26s-18.965 5.807-18.965 12.583v25.812c0 6.452 8.485 11.937 18.965 11.937zm-8.983-37.75c0-3.226 3.992-5.807 8.983-5.807s8.983 2.581 8.983 5.808v25.812c0 3.226-3.992 5.807-8.983 5.807s-8.983-2.904-8.983-5.807V25.533zm115.785 37.75c10.48 0 18.965-5.485 18.965-12.26V25.21c0-6.453-8.485-11.938-18.965-11.938s-18.965 5.485-18.965 12.26v25.813c.5 6.452 8.983 11.937 18.965 11.937zm-8.484-37.75c0-3.226 3.992-5.807 8.983-5.807s8.484 2.581 8.484 5.808v25.812c0 3.226-3.992 5.807-8.983 5.807s-8.983-2.581-8.983-5.807V25.533h.499zM89.859 98.775c0-1.936-1.996-3.227-4.99-3.227H42.446c-2.995 0-4.99 1.29-4.99 3.227v17.745c0 1.936 1.995 3.227 4.99 3.227h42.421c2.995 0 4.991-1.291 4.991-3.227V98.774zm-9.982 14.519h-32.44V102h32.44v11.293zm87.338-14.52c0-1.935-1.996-3.226-4.99-3.226h-44.917c-2.994 0-4.99 1.29-4.99 3.227v17.745c0 1.936 1.996 3.227 4.99 3.227h44.917c2.994 0 4.99-1.291 4.99-3.227V98.774zm-9.981 14.52h-34.935V102h34.935v11.293zm77.356 6.453c2.995 0 4.991-1.291 4.991-3.227V98.774c0-1.936-1.996-3.227-4.99-3.227h-42.422c-2.994 0-4.99 1.29-4.99 3.227v17.745c0 1.936 1.996 3.227 4.99 3.227h42.421zM197.16 102h32.44v11.293h-32.44V102zM84.868 134.265H42.447c-2.995 0-4.99 1.29-4.99 3.226v17.746c0 1.935 1.995 3.226 4.99 3.226h42.421c2.995 0 4.991-1.29 4.991-3.226V137.49c0-1.936-1.996-3.226-4.99-3.226zm-4.99 17.745h-32.44v-11.292h32.44v11.292zm82.347-17.745h-44.917c-2.994 0-4.99 1.29-4.99 3.226v17.746c0 1.935 1.996 3.226 4.99 3.226h44.917c2.994 0 4.99-1.29 4.99-3.226V137.49c0-1.936-1.996-3.226-4.99-3.226zm-4.991 17.745h-34.935v-11.292h34.935v11.292zm83.345-24.198c-26.95 0-48.909 14.196-48.909 31.619s21.96 31.62 48.91 31.62 48.909-14.197 48.909-31.62-21.96-31.62-48.91-31.62zm0 56.463c-21.46 0-38.927-11.293-38.927-25.167s17.467-25.166 38.927-25.166 38.928 11.615 38.928 25.166-17.468 25.167-38.928 25.167zm17.967-36.137l-25.952 16.778-3.992-3.55c-1.498-1.29-4.991-1.612-6.987-.644-1.997.968-2.496 3.226-.999 4.517l7.486 6.453c.999.645 1.997 1.29 3.494 1.29h.5c1.496 0 2.494-.323 3.493-.968l29.944-19.359c1.996-1.29 1.996-3.226 0-4.517s-4.99-1.29-6.987 0z"/></g>
			
	<linearGradient id="picture-gradient" x1="0" y1="0" y2="1" x2="0" >
		<stop stop-color="#363636" offset="0%"/>
		<stop stop-color="#363636" offset="100%"/>
	</linearGradient>

		</defs>

		

			<use xlink:href="#background" fill="url(#background-gradient)" />

		

			<g mask="url(#mask)">
				<g transform="
				        translate(
                                50 50
)
                            translate(0 0)  scale(0.5)  
                            translate(
                                -50 -50
)">
						<use xlink:href="#picture" fill="url(#picture-gradient)"  />
				</g>
			</g>

		

			<use xlink:href="#gloss-top" opacity="1" />


	</svg>
