<?xml version="1.0" encoding="UTF-8"?>
<svg width="128" height="128" version="1.1" viewBox="0 0 100 100" xmlns="http://www.w3.org/2000/svg">
<g transform="translate(50 50) scale(.5) translate(-50 -50)">
<g transform="scale(.67959) translate(-72.426 -73.925)" fill="rgba(103,88,3,1)">
<path d="M219.543 87.514c-.14-1.975-1.71-3.54-3.649-3.54H76.106c-1.937 0-3.508 1.562-3.65 3.54l-.03 98.254c0 2.112 1.649 3.826 3.68 3.826h139.788c2.03 0 3.679-1.714 3.679-3.826l-.03-98.254zm-5.856 83.712H78.313V90.098h135.374v81.128zm-44.144 36.737c-5.886-1.53-7.357-6.123-7.357-12.246v-1.53h-32.372v1.53c0 6.123-1.472 10.715-7.357 12.246-1.428.37-1.472 3.061 0 3.061h47.086c1.472 0 1.428-2.69 0-3.061z"/>
<path d="M94.545 157.482a5.098 5.098 0 0 1-5.101-4.796c0-.9.34-1.499.68-1.798.51 0 .85.599 1.02 1.198 0 .9 1.19 2.099 3.401 2.099 2.041 0 3.401-1.499 3.401-2.099 0-.3-.17-1.498-3.23-2.098h-.34c-1.361-.3-4.762-.899-4.762-5.095 0-2.998 2.21-5.396 5.101-5.396a5.098 5.098 0 0 1 5.102 4.796c0 .9-.34 1.499-.68 1.799-.51 0-.85-.6-1.02-1.2 0-.899-1.19-2.097-3.402-2.097-2.04 0-3.4 1.498-3.4 2.397 0 .3.17 1.5 3.23 2.099h.34c1.36.3 4.762.899 4.762 5.095 0 2.998-2.21 5.096-5.102 5.096zm0 2.997c-.51 0-.85-.6-.85-1.499V138c0-.9.34-1.499.85-1.499s.85.6.85 1.499v20.981c0 .9-.34 1.5-.85 1.5zm8.503-44.96h-1.7c-.51 0-.85-.6-.85-1.5s.34-1.498.85-1.498h1.7c.51 0 .85.6.85 1.498s-.34 1.5-.85 1.5zm6.802 0h-1.7c-.51 0-.85-.6-.85-1.5s.34-1.498.85-1.498h1.7c.51 0 .85.6.85 1.498s-.34 1.5-.85 1.5zm6.802 0h-1.7c-.51 0-.85-.6-.85-1.5s.34-1.498.85-1.498h1.7c.51 0 .85.6.85 1.498s-.34 1.5-.85 1.5zm6.802 0h-1.7c-.51 0-.85-.6-.85-1.5s.34-1.498.85-1.498h1.7c.51 0 .85.6.85 1.498s-.34 1.5-.85 1.5zm-11.903 11.989h-8.503c-.51 0-.85-.6-.85-1.499s.34-1.499.85-1.499h8.503c.51 0 .85.6.85 1.5s-.34 1.498-.85 1.498zm0 11.99h-1.7c-.511 0-.851-.6-.851-1.5s.34-1.498.85-1.498h1.7c.51 0 .85.6.85 1.499s-.34 1.498-.85 1.498zm16.155 11.989H108.15c-.51 0-.85-.6-.85-1.499s.34-1.498.85-1.498h19.556c2.21 0 5.101-3.597 5.101-7.494V114.02c0-3.896-2.04-7.493-4.251-7.493h-28.91c-2.04 0-4.25 1.798-4.25 5.995v13.488c0 .9-.34 1.499-.85 1.499s-.85-.6-.85-1.499v-13.488c0-5.096 2.55-8.992 5.95-8.992h28.91c3.23 0 5.952 4.795 5.952 10.49v26.977c0 5.695-3.742 10.491-6.802 10.491zm-7.653-11.99c-2.38 0-4.251-3.297-4.251-7.493s1.87-7.494 4.251-7.494c.68 0 1.53.3 2.21.9.341.3.341.899.341 1.199s-.17.899-.34 1.199c-.85 1.198-1.36 2.697-1.36 4.196s.51 2.997 1.36 3.897c.34.3.34.899.34 1.198s-.17.9-.34 1.2c-.68.899-1.53 1.198-2.21 1.198zm0-11.99c-1.36 0-2.55 2.099-2.55 4.497s1.19 4.496 2.55 4.496c-.51-1.199-.85-2.997-.85-4.496s.34-3.297.85-4.496zm3.401 11.99c-2.38 0-4.251-3.297-4.251-7.493s1.87-7.494 4.251-7.494 4.252 3.298 4.252 7.494-1.871 7.493-4.252 7.493zm0-11.99c-1.36 0-2.55 2.099-2.55 4.497s1.19 4.496 2.55 4.496 2.551-2.098 2.551-4.496-1.19-4.496-2.55-4.496zm-28.909 41.964c-6.121 0-11.053-8.692-11.053-19.483s4.932-19.483 11.053-19.483 11.054 8.693 11.054 19.483-4.932 19.483-11.054 19.483zm0-35.968c-5.101 0-9.352 7.493-9.352 16.485s4.25 16.486 9.352 16.486 9.353-7.493 9.353-16.486-4.251-16.485-9.353-16.485zm85.787 28.342H146.99c-1.202 0-2.186-1.257-2.186-2.794v-34.237h53.566v16.07c0 .839.437 1.398 1.093 1.398s1.093-.56 1.093-1.398v-31.441c0-3.074-1.967-5.59-4.372-5.59h-6.56c-.655 0-1.093.56-1.093 1.398s.438 1.397 1.094 1.397h6.559c1.202 0 2.186 1.258 2.186 2.795v12.576h-53.566v-12.576c0-1.537.984-2.795 2.186-2.795h5.466c.656 0 1.094-.559 1.094-1.397s-.438-1.398-1.094-1.398h-5.466c-2.405 0-4.372 2.516-4.372 5.59v49.608c0 3.074 1.967 5.59 4.372 5.59h33.342c.656 0 1.094-.56 1.094-1.398s-.438-1.398-1.094-1.398zm-14.21-55.197h9.838c.656 0 1.093-.559 1.093-1.397s-.437-1.398-1.093-1.398h-9.839c-.656 0-1.093.56-1.093 1.398s.437 1.397 1.093 1.397zm-6.779 9.083c2.296 0 4.155-2.375 4.155-5.31v-11.18c0-2.934-1.859-5.31-4.155-5.31s-4.154 2.516-4.154 5.45v11.18c0 2.795 1.859 5.17 4.154 5.17zm-1.967-16.35c0-1.397.874-2.515 1.967-2.515s1.968 1.118 1.968 2.516v11.179c0 1.397-.874 2.515-1.968 2.515s-1.967-1.258-1.967-2.515V99.38zm25.361 16.35c2.296 0 4.155-2.375 4.155-5.31v-11.18c0-2.794-1.859-5.17-4.155-5.17s-4.154 2.376-4.154 5.31v11.18c.11 2.795 1.968 5.17 4.154 5.17zm-1.858-16.35c0-1.397.875-2.515 1.968-2.515s1.858 1.118 1.858 2.516v11.179c0 1.397-.874 2.515-1.968 2.515s-1.967-1.118-1.967-2.515V99.38h.11zm-20.224 31.722c0-.839-.437-1.398-1.093-1.398h-9.292c-.656 0-1.093.56-1.093 1.398v7.685c0 .839.437 1.398 1.093 1.398h9.292c.656 0 1.093-.56 1.093-1.398v-7.685zm-2.186 6.288h-7.106V132.5h7.106v4.89zm19.13-6.288c0-.839-.437-1.398-1.093-1.398h-9.838c-.656 0-1.093.56-1.093 1.398v7.685c0 .839.437 1.398 1.093 1.398h9.838c.656 0 1.094-.56 1.094-1.398v-7.685zm-2.186 6.288h-7.652V132.5h7.652v4.89zm16.944 2.795c.656 0 1.094-.56 1.094-1.398v-7.685c0-.839-.438-1.398-1.094-1.398h-9.292c-.655 0-1.093.56-1.093 1.398v7.685c0 .839.438 1.398 1.093 1.398h9.292zm-8.198-7.686h7.105v4.89h-7.105v-4.89zm-24.597 13.974h-9.292c-.656 0-1.093.559-1.093 1.397v7.686c0 .839.437 1.398 1.093 1.398h9.292c.656 0 1.093-.56 1.093-1.398v-7.686c0-.838-.437-1.397-1.093-1.397zm-1.093 7.686h-7.106v-4.891h7.106v4.89zm18.037-7.686h-9.838c-.656 0-1.093.559-1.093 1.397v7.686c0 .839.437 1.398 1.093 1.398h9.838c.656 0 1.094-.56 1.094-1.398v-7.686c0-.838-.438-1.397-1.094-1.397zm-1.093 7.686h-7.652v-4.891h7.652v4.89zm18.256-10.48c-5.903 0-10.713 6.148-10.713 13.694s4.81 13.694 10.713 13.694 10.713-6.148 10.713-13.694-4.81-13.695-10.713-13.695zm0 24.454c-4.7 0-8.527-4.891-8.527-10.9s3.827-10.9 8.527-10.9 8.527 5.03 8.527 10.9-3.826 10.9-8.527 10.9zm3.936-15.651l-5.685 7.266-.874-1.537c-.328-.559-1.094-.699-1.53-.28-.438.42-.547 1.398-.22 1.957l1.64 2.795c.219.28.438.559.766.559h.109c.328 0 .546-.14.765-.42l6.56-8.384c.436-.559.436-1.397 0-1.956s-1.094-.56-1.531 0z"/>
</g>
</g>
</svg>